Coordinates
version=1
nRows=24
nColumns=38
inDegrees=no

Units are S.I. units (second, meters, Newtons, ...)
If the header above contains a line with 'inDegrees', this indicates whether rotational values are in degrees (yes) or radians (no).

endheader
time	pelvis_tilt	pelvis_list	pelvis_rotation	pelvis_tx	pelvis_ty	pelvis_tz	hip_flexion_r	hip_adduction_r	hip_rotation_r	knee_angle_r	ankle_angle_r	subtalar_angle_r	mtp_angle_r	hip_flexion_l	hip_adduction_l	hip_rotation_l	knee_angle_l	ankle_angle_l	subtalar_angle_l	mtp_angle_l	lumbar_extension	lumbar_bending	lumbar_rotation	arm_flex_r	arm_add_r	arm_rot_r	elbow_flex_r	pro_sup_r	wrist_flex_r	wrist_dev_r	arm_flex_l	arm_add_l	arm_rot_l	elbow_flex_l	pro_sup_l	wrist_flex_l	wrist_dev_l
80	0.830528	1.12966	0.636307	-0.900987	0.293926	0.830367	0.560281	0.523599	0.698132	0	-0.430559	0	0	2.03778	-0.0592081	-0.698132	0.05133	0.0680787	0	0	0.435018	0.377422	0.144702	-0.296262	-0.299023	0.328968	0.795767	1.26778	0	0	-0.105331	-0.374711	0.184056	0.977456	1.04253	0	0
80.01	0.269889	1.00622	1.00376	-0.885698	0.308894	0.817713	0.785353	0.523599	0.698132	0.0761911	-0.395031	0	0	1.41892	0.321736	-0.410306	0	0.0680787	0	0	0.758857	0.345979	0.258778	-0.371113	-0.269484	0.384008	0.773715	1.29139	0	0	0.114045	-0.201781	0.354361	1.08719	1.04253	0	0
80.02	0.160744	0.98259	1.06815	-0.885529	0.318111	0.817089	0.82482	0.523599	0.698132	0.123902	-0.378694	0	0	1.38638	0.38903	-0.397978	0	0.0680787	0	0	0.821028	0.336119	0.306338	-0.37889	-0.250623	0.395168	0.736892	1.29368	0	0	0.0908484	-0.225389	0.393676	1.12277	1.04253	0	0
80.03	0.255728	0.952983	1.04219	-0.906224	0.313219	0.813227	0.913481	0.523599	0.698132	0.2199	-0.368451	0	0	1.29299	0.460663	-0.358977	0	0.0680787	0	0	0.811172	0.373177	0.25166	-0.371112	-0.304491	0.377362	0.750639	1.29295	0	0	0.10068	-0.189846	0.441113	1.15233	1.04253	0	0
80.04	0.510459	0.974828	0.96278	-0.93391	0.301023	0.820097	0.948596	0.513046	0.43137	0.305299	-0.357985	0	0	0.654679	0.523599	-0.27477	0	0.0680787	0	0	0.68824	0.41306	0.0901837	-0.292501	-0.363287	0.34905	0.754091	1.28749	0	0	0.502385	-0.508794	0.515528	1.10499	1.04253	0	0
80.05	0.937913	1.14899	0.772941	-0.969201	0.294117	0.843002	0.680032	0.38538	0.166339	0.204265	-0.35783	0	0	0.243047	0.523599	-0.698132	0	0.0680787	0	0	0.376136	0.406014	-0.063963	-0.162203	-0.393648	0.342661	0.708447	1.28952	0	0	0.388756	-0.44224	1.5708	0.760289	1.5708	0	0
80.06	1.1672	1.3232	0.767375	-0.994056	0.28139	0.864211	0.541374	0.169322	-0.105951	0.263855	-0.343185	0	0	0.095265	-0.280926	-0.698132	1.11399	0.0680787	0	0	0.166048	0.282093	-0.239323	-0.0179749	-0.342658	0.385523	0.590367	1.28219	0	0	0.437025	-0.43559	1.49682	0.698084	1.5708	0	0
80.07	1.73154	1.37875	0.233669	-0.999595	0.285204	0.875776	0.391619	0.166739	-0.182294	0.255623	-0.352557	0	0	-0.199055	-0.566313	-0.698132	1.16215	0.0680787	0	0	-0.00950819	0.300712	-0.250289	0.0172898	-0.345941	0.378863	0.614177	1.27939	0	0	0.486474	-0.447047	1.49886	0.723058	1.5708	0	0
80.08	1.56959	1.31827	0.321232	-0.992461	0.30221	0.870147	0.437383	0.25867	-0.100198	0.258452	-0.375501	0	0	-0.277497	-0.42571	-0.606475	0.33773	-0.365087	0	0	0.0418987	0.359045	-0.187938	-0.028815	-0.366789	0.339224	0.66308	1.29562	0	0	0.443429	-0.328141	-0.558645	0.446932	1.5708	0	0
80.09	1.63584	1.36051	0.2292	-0.992818	0.316665	0.878482	0.394351	0.232977	-0.0955077	0.271911	-0.378843	0	0	-0.326985	-0.400427	-0.694152	0.369514	-0.414523	0	0	0.0127402	0.324964	-0.168799	-0.0168609	-0.355423	0.354847	0.626886	1.29122	0	0	0.472696	-0.351935	1.5708	0.536377	1.5708	0	0
80.1	2.05116	1.38475	-0.193754	-0.992728	0.32827	0.889259	0.293042	0.216135	-0.118587	0.278817	-0.377929	0	0	-0.460544	-0.362162	-0.698132	0.305954	-0.556202	0	0	-0.0934801	0.292278	-0.154429	0.00317203	-0.339864	0.357797	0.612557	1.28191	0	0	0.42789	-0.357228	-0.654646	0.519154	1.5708	0	0
80.11	2.22373	1.38196	-0.379917	-0.991169	0.340632	0.894284	0.252082	0.217359	-0.119005	0.298525	-0.374466	0	0	-0.48251	-0.37985	-0.698132	0.377904	-0.566167	0	0	-0.136051	0.278941	-0.151369	0.0134324	-0.332503	0.368505	0.606941	1.27972	0	0	0.404224	-0.368046	-0.688552	0.53611	1.5708	0	0
80.12	2.25321	1.33986	-0.407689	-0.989529	0.350752	0.893461	0.224826	0.263321	-0.125698	0.306143	-0.360392	0	0	-0.523599	-0.399678	-0.698132	0.338228	-0.695154	0	0	-0.174506	0.29506	-0.161342	0.0279895	-0.338063	0.414345	0.62067	1.23758	0	0	0.395032	-0.639051	1.32663	1.04415	1.5708	0	0
80.13	1.55017	1.29569	0.291104	-0.985126	0.363258	0.874877	0.436335	0.323108	-0.0974249	0.361625	-0.325627	0	0	-0.523599	0.0476715	0.179323	0.208191	-0.698132	0	0	0.0449162	0.356726	-0.205271	-0.0149691	-0.36026	0.417182	0.647724	1.2345	0	0	0.401095	-0.428873	1.40132	0.729327	1.43066	0	0
80.14	1.42752	1.26952	0.422203	-0.984114	0.372645	0.871645	0.483436	0.334286	-0.107574	0.377351	-0.313672	0	0	-0.298194	-0.547473	-0.698132	0.368116	-0.698132	0	0	0.108935	0.37451	-0.221981	-0.0441259	-0.365279	0.379801	0.670179	1.25394	0	0	0.318317	-0.27919	-0.711426	0.443621	1.43066	0	0
80.15	1.38532	1.2484	0.459376	-0.982019	0.384539	0.87081	0.491847	0.356298	-0.109655	0.372267	-0.309082	0	0	-0.231379	-0.584663	-0.698132	0.498323	-0.698132	0	0	0.141319	0.384284	-0.232058	-0.0537145	-0.368331	0.384051	0.67598	1.24526	0	0	0.379164	-0.306535	-0.733541	0	0.219347	0	0
80.16	1.42307	1.26164	0.397989	-0.980248	0.397292	0.874984	0.446029	0.365234	-0.0973097	0.362391	-0.304731	0	0	-0.221663	-0.573554	-0.624544	0.548689	-0.698132	0	0	0.116011	0.379239	-0.212645	-0.0541011	-0.367481	0.383434	0.678533	1.24519	0	0	0.37249	-0.302082	-0.680767	0	0	0	0
80.17	1.41471	1.2671	0.387628	-0.978479	0.409429	0.877123	0.423347	0.370099	-0.0942188	0.357577	-0.303016	0	0	-0.256958	-0.59284	-0.665606	0.493483	-0.698132	0	0	0.111099	0.371266	-0.205283	-0.0518216	-0.365559	0.389534	0.676386	1.24485	0	0	0.454329	-0.122891	-0.69761	0	2.56755e-08	0	0
80.18	1.44686	1.29373	0.353224	-0.979136	0.418953	0.881833	0.382795	0.349105	-0.105402	0.350652	-0.300241	0	0	-0.309677	-0.57945	-0.698132	0.439359	-0.698132	0	0	0.0836471	0.348672	-0.205849	-0.040715	-0.35978	0.392112	0.669657	1.24143	0	0	0.451907	-0.12646	-0.728376	0	2.55171e-08	0	0
80.19	1.4485	1.25997	0.350846	-0.974628	0.428545	0.879415	0.380941	0.394925	-0.102344	0.333798	-0.298684	0	0	-0.284239	-0.58225	-0.698132	0.434239	-0.698132	0	0	0.0965114	0.375994	-0.215032	-0.0476846	-0.362146	0.38566	0.691064	1.23821	0	0	0.45398	-0.132351	-0.740146	0	2.833e-08	0	0
80.2	1.32645	1.18288	0.509746	-0.972412	0.43262	0.868593	0.477608	0.439368	-0.130954	0.335408	-0.300996	0	0	-0.168759	-0.685744	-0.698132	0.450013	-0.698132	0	0	0.193253	0.423067	-0.274365	-0.0774289	-0.380088	0.357819	0.750751	1.22799	0	0	0.4567	-0.131114	-0.753079	0	2.35824e-08	0	0
80.21	1.24688	1.17269	0.580639	-0.970289	0.44202	0.867786	0.499451	0.440035	-0.128807	0.332794	-0.28765	0	0	-0.119878	-0.688613	-0.698132	0.448313	-0.698132	0	0	0.23484	0.420355	-0.275594	-0.0948935	-0.380508	0.333756	0.763942	1.22865	0	0	0.401419	-0.250633	-0.602137	0	0	0	0
80.22	1.21733	1.18666	0.584312	-0.969101	0.454301	0.871401	0.469764	0.437266	-0.114539	0.321782	-0.28852	0	0	-0.129363	-0.662363	-0.698132	0.423256	-0.698132	0	0	0.239772	0.406392	-0.239602	-0.109959	-0.379097	0.319568	0.754939	1.22419	0	0	0.477552	-0.059592	-0.666706	0	0	0	0
80.23	1.26404	1.23656	0.516658	-0.968967	0.46707	0.879367	0.387437	0.416048	-0.102083	0.307855	-0.288089	0	0	-0.162399	-0.690509	-0.698132	0.48095	-0.698132	0	0	0.181752	0.374715	-0.213402	-0.0957953	-0.367902	0.321456	0.735537	1.2212	0	0	0.470822	-0.0685027	-0.716647	0	0	0	0
